<svg xmlns="http://www.w3.org/2000/svg" viewBox="0 0 400 300" width="406" height="306" class="illustration styles_illustrationTablet__1DWOa"><g id="_271_order_confirmed_outline" data-name="#271_order_confirmed_outline"><rect x="107.13" y="81.37" width="175.95" height="20.63" rx="6.48" fill="#68e1fd"></rect><path d="M276.61,103h-163a7.49,7.49,0,0,1-7.48-7.48V87.85a7.49,7.49,0,0,1,7.48-7.48h163a7.49,7.49,0,0,1,7.47,7.48v7.67A7.48,7.48,0,0,1,276.61,103Zm-163-20.63a5.49,5.49,0,0,0-5.48,5.48v7.67a5.49,5.49,0,0,0,5.48,5.48h163a5.48,5.48,0,0,0,5.47-5.48V87.85a5.48,5.48,0,0,0-5.47-5.48Z" fill="#093f68"></path><path d="M115,102H275.23a0,0,0,0,1,0,0v97.63a6.38,6.38,0,0,1-6.38,6.38H121.37a6.38,6.38,0,0,1-6.38-6.38V102A0,0,0,0,1,115,102Z" fill="#68e1fd"></path><path d="M268.85,207H121.37a7.38,7.38,0,0,1-7.38-7.37V102a1,1,0,0,1,1-1H275.23a1,1,0,0,1,1,1v97.63A7.38,7.38,0,0,1,268.85,207ZM116,103v96.63a5.38,5.38,0,0,0,5.38,5.37H268.85a5.39,5.39,0,0,0,5.38-5.37V103Z" fill="#093f68"></path><polygon points="207.48 81.37 207.48 126.33 203.35 121.98 199.23 126.33 195.11 121.98 190.99 126.33 186.86 121.98 182.74 126.33 182.74 81.37 207.48 81.37" fill="#ffbc0e"></polygon><path d="M182.74,127.33a1,1,0,0,1-.37-.07,1,1,0,0,1-.63-.93v-45a1,1,0,0,1,1-1h24.74a1,1,0,0,1,1,1v45a1,1,0,0,1-1.73.69l-3.4-3.59L200,127a1,1,0,0,1-.72.31h0a1,1,0,0,1-.73-.31l-3.39-3.59-3.4,3.59a1,1,0,0,1-1.45,0l-3.4-3.59L183.47,127A1,1,0,0,1,182.74,127.33Zm4.12-6.35a1,1,0,0,1,.72.31l3.4,3.59,3.41-3.59a1,1,0,0,1,.72-.31h0a1,1,0,0,1,.73.31l3.39,3.59,3.4-3.59a1,1,0,0,1,1.45,0l2.4,2.53V82.37H183.74v41.45l2.39-2.53a1,1,0,0,1,.73-.31Z" fill="#093f68"></path><path d="M162.64,192.12H128.88a1,1,0,0,1-1-1V167.4a1,1,0,0,1,1-1h33.76a1,1,0,0,1,1,1v23.72A1,1,0,0,1,162.64,192.12Zm-32.76-2h31.76V168.4H129.88Z" fill="#093f68"></path><path d="M161.93,160.49H129.58a1,1,0,0,1,0-2h32.35a1,1,0,0,1,0,2Z" fill="#093f68"></path><path d="M289.26,218.63H214.35a3.61,3.61,0,0,1-3.61-3.61V143.69l16.45-19.47h62.07a3.61,3.61,0,0,1,3.61,3.61V215A3.61,3.61,0,0,1,289.26,218.63Z" fill="#fff"></path><path d="M289.26,219.63H214.35a4.62,4.62,0,0,1-4.61-4.61V143.69A1,1,0,0,1,210,143l16.45-19.46a1,1,0,0,1,.76-.36h62.07a4.62,4.62,0,0,1,4.61,4.61V215A4.62,4.62,0,0,1,289.26,219.63Zm-77.52-75.58v71a2.61,2.61,0,0,0,2.61,2.61h74.91a2.61,2.61,0,0,0,2.61-2.61V127.83a2.61,2.61,0,0,0-2.61-2.61h-61.6Z" fill="#093f68"></path><path d="M210.74,143.69h12.85a3.61,3.61,0,0,0,3.6-3.61V124.22Z" fill="#fff"></path><path d="M223.59,144.69H210.74A1,1,0,0,1,210,143l16.45-19.46a1,1,0,0,1,1.76.64v15.86A4.61,4.61,0,0,1,223.59,144.69Zm-10.69-2h10.69a2.61,2.61,0,0,0,2.6-2.61V127Z" fill="#093f68"></path><path d="M242.62,175.82l-14.43-15.89a3,3,0,0,1,.2-4.22l4-3.65a3,3,0,0,1,4.22.2l8.69,9.57,23.94-22.25a3,3,0,0,1,4.22.15l3.69,4a3,3,0,0,1-.15,4.23L246.82,176A3,3,0,0,1,242.62,175.82Z" fill="#70cc40"></path><path d="M244.81,177.78h-.17a3.91,3.91,0,0,1-2.76-1.29L227.45,160.6a4,4,0,0,1,.27-5.63l4-3.65a4,4,0,0,1,5.63.27l8,8.82,23.2-21.56a4,4,0,0,1,5.64.2l3.69,4a4,4,0,0,1-.21,5.64L247.5,176.73A4,4,0,0,1,244.81,177.78Zm-10.4-25.49a2,2,0,0,0-1.34.51l-4,3.65a2,2,0,0,0-.13,2.8l14.43,15.89h0a2,2,0,0,0,2.78.12l30.19-28.07a2,2,0,0,0,.63-1.38,2,2,0,0,0-.53-1.43l-3.69-4a2,2,0,0,0-2.81-.1L246,162.56a1,1,0,0,1-.72.27,1,1,0,0,1-.7-.33l-8.69-9.56A2,2,0,0,0,234.41,152.29Z" fill="#093f68"></path><path d="M280.4,190.11h-8.62a1,1,0,0,1,0-2h8.62a1,1,0,0,1,0,2Z" fill="#dfeaef"></path><path d="M262.45,190.11H225a1,1,0,0,1,0-2h37.47a1,1,0,0,1,0,2Z" fill="#dfeaef"></path><path d="M280.4,198.93H248.66a1,1,0,0,1,0-2H280.4a1,1,0,0,1,0,2Z" fill="#dfeaef"></path><path d="M239.94,198.93H225a1,1,0,1,1,0-2h15a1,1,0,0,1,0,2Z" fill="#dfeaef"></path><path d="M260.42,207.75H225a1,1,0,0,1,0-2h35.44a1,1,0,0,1,0,2Z" fill="#dfeaef"></path></g></svg>